<svg width="70" height="28" version="1.1" viewBox="0 0 18.521 7.4083" xmlns="http://www.w3.org/2000/svg"><g transform="translate(-105.27 -138.4)"><path d="m108.55 145.79a3.0921 3.3205 0 0 1-2.7878-1.659 3.8677 4.1534 0 0 1 5e-3 -4.0726 3.103 3.3323 0 0 1 2.859-1.6505l11.819 0.0209a3.1085 3.3381 0 0 1 2.8508 1.6628 3.8676 4.1533 0 0 1-7e-3 4.072c-0.59242 1.0844-1.6076 1.6623-2.8584 1.647l-11.819-0.0209q-0.0311 3.4e-4 -0.0619 4.3e-4zm0.0177-6.9826a2.7384 2.9407 0 0 0-2.4789 1.4533 3.4843 3.7417 0 0 0-5e-3 3.6689 2.741 2.9434 0 0 0 2.5255 1.4599l11.825 0.0209a2.7453 2.9481 0 0 0 2.5336-1.4494 3.484 3.7413 0 0 0 6e-3 -3.6684 2.7528 2.9562 0 0 0-2.5267-1.4637l-11.825-0.0209c-0.0181-4.2e-4 -0.0362-5.5e-4 -0.0542-6.1e-4z" stroke-width=".25961"/><g transform="translate(0 -.013198)"><path d="m113.65 142.12a2.5358 2.4966 0 0 1 1.2691-2.1632 2.5371 2.4979 0 1 0 0 4.3261 2.5355 2.4963 0 0 1-1.2691-2.1629z" fill="#9a9df1" stroke-width=".10296" data-name="Path 6"/><path d="m116.84 142.12a2.5357 2.4965 0 0 1 1.2691-2.1632 2.5371 2.4979 0 1 0 0 4.3261 2.5355 2.4963 0 0 1-1.2691-2.1629z" fill="#6467f1" stroke-width=".10296" data-name="Path 7"/><path id="a4813fcf-056e-4514-bb8b-e6506f49341f" transform="matrix(.26458 0 0 .26458 105.27 138.4)" d="m55.504 4.6094a9.5891 9.4409 0 0 0-9.5898 9.4414 9.5891 9.4409 0 0 0 9.5898 9.4395 9.5891 9.4409 0 0 0 9.5898-9.4395 9.5891 9.4409 0 0 0-9.5898-9.4414zm-0.28711 2.3789 1.7812 0.11328 0.13672 1.3262a5.8577 5.7672 0 0 1 2.0469 1.0156l1.0508-0.64062 1.1777 1.3203-0.78125 0.94141a5.8596 5.7691 0 0 1 0.76758 2.1836l1.3691 0.31641-0.11523 1.7539-1.3848 0.13672a5.8607 5.7701 0 0 1-1.0645 2.1328l0.65039 1.0332-1.3418 1.1602-0.95703-0.76953a5.8598 5.7693 0 0 1-2.2832 0.76367l-0.31836 1.3359-1.7812-0.11328-0.14062-1.377a5.8592 5.7687 0 0 1-2.1133-1.041l-0.97266 0.59375-1.1777-1.3203 0.72266-0.87109a5.8562 5.7657 0 0 1-0.76758-2.1426l-1.3164-0.30469 0.11328-1.7539 1.3086-0.12891a5.8584 5.7678 0 0 1 1.0918-2.2168l-0.60156-0.95703 1.3418-1.1602 0.88477 0.71094a5.8602 5.7697 0 0 1 2.373-0.7793zm0.41016 2.3438a4.7635 4.6899 0 1 0 3.1348 8.2129 4.7635 4.6899 0 0 0 0.43555-6.6191 4.7635 4.6899 0 0 0-3.5703-1.5937z" fill="#36d39a" stroke-width=".38915"/></g></g></svg>
